<?xml version="1.0" encoding="UTF-8"?>
<svg width="8px" height="8px" viewBox="0 0 8 8" version="1.1" xmlns="http://www.w3.org/2000/svg" xmlns:xlink="http://www.w3.org/1999/xlink">
    <title>FBD44357-C301-4612-8947-77D56CA09FAA</title>
    <g id="Page-1" stroke="none" stroke-width="1" fill="none" fill-rule="evenodd">
        <g id="FXS-WEB-HOME-DARK_r02_lighter" transform="translate(-375.000000, -2220.000000)" fill="#F04459">
            <g id="Meet-our-features" transform="translate(0.000000, 2008.000000)">
                <g id="1" transform="translate(373.000000, 191.000000)">
                    <path d="M5.09534694,21.5366112 L4.39675782,22.8142191 C4.26231639,23.060091 4.0601711,23.2622408 3.81430224,23.3966878 L2.53655719,24.0953892 C2.03695451,24.3685839 1.85341455,24.9950599 2.12660922,25.4946626 C2.2212354,25.6677095 2.36351027,25.8099844 2.53655719,25.9046106 L3.81430224,26.6033121 C4.0601711,26.737759 4.26231639,26.9399089 4.39675782,27.1857808 L5.09534694,28.4633886 C5.3685489,28.9630313 5.9950633,29.1465978 6.49470602,28.8733959 C6.66772528,28.7787899 6.80998712,28.6365536 6.90462425,28.4635514 L7.6037276,27.1855495 C7.7381467,26.9398235 7.94019629,26.7377858 8.18593022,26.6033812 L9.46350305,25.9046106 C9.96310574,25.631352 10.1465939,25.0048242 9.87333537,24.5052216 C9.77872019,24.3322352 9.6364894,24.1900044 9.46350305,24.0953892 L8.18593022,23.3966186 C7.94019629,23.262214 7.7381467,23.0601763 7.6037276,22.8144503 L6.90462425,21.5364484 C6.63133239,21.0368549 6.00478496,20.8534011 5.50519141,21.126693 C5.33218919,21.2213301 5.18995294,21.363592 5.09534694,21.5366112 Z" id="Fill-1" transform="translate(6.000000, 25.000000) rotate(55.000000) translate(-6.000000, -25.000000) "></path>
                </g>
            </g>
        </g>
    </g>
</svg>